<?xml version="1.0" encoding="UTF-8" standalone="no"?>
<svg xmlns="http://www.w3.org/2000/svg" viewBox="0 0 10 10">
  <g>
    <g transform="translate(-0.06313451,-0.52612116)">
      <path
         style="fill:#000000;fill-opacity:1;stroke:none;stroke-width:0.00140299;stroke-linecap:round;stroke-linejoin:round;stroke-miterlimit:4;stroke-dasharray:none;stroke-opacity:1"
         d="M 1.2765771,3.8425931 C 1.166409,3.5327487 1.0167678,3.0960958 1.0197351,3.0931285 1.0253691,3.0874985 5.9009883,1.7678361 5.9296406,1.76419 c 0.028071,-0.00357 0.5657599,0.5921861 0.5485758,0.6078212 -0.00895,0.00814 -5.0220804,1.4471722 -5.1564231,1.4801643 -0.026492,0.00651 -0.040555,0.00353 -0.045216,-0.00958 z"
      />
      <path
         style="fill:#000000;fill-opacity:1;stroke:none;stroke-width:0.00140299;stroke-linecap:round;stroke-linejoin:round;stroke-miterlimit:4;stroke-dasharray:none;stroke-opacity:1"
         d="M 1.7185173,5.2474828 C 1.6093392,4.9362632 1.5364622,4.7085344 1.5438993,4.7018291 1.5547916,4.6920085 7.013773,3.0283845 7.0799827,3.0147083 7.1078727,3.0089483 7.8126388,3.792166 7.7875451,3.801034 7.7789451,3.804074 6.4618659,4.2471433 4.860704,4.7856336 3.259542,5.3241239 1.9396903,5.7685143 1.9277,5.7731676 1.909959,5.7800576 1.871009,5.6821706 1.7185173,5.2474828 Z"
      />
      <path
         style="fill:#000000;fill-opacity:1;stroke:none;stroke-width:0.00140299;stroke-linecap:round;stroke-linejoin:round;stroke-miterlimit:4;stroke-dasharray:none;stroke-opacity:1"
         d="M 2.5023445,7.6746302 C 2.3588551,7.2657378 2.2470894,6.8049205 2.2539763,6.8049205 4.4396416,5.9814261 8.3943644,4.4558956 8.3943644,4.4558956 c 0,0 0.2769913,0.1974553 0.6258228,0.588273 C 9.2767554,5.331618 9.4520438,5.5389204 9.4429575,5.5441521 9.4249247,5.5545346 2.7725531,8.4184299 2.7669688,8.4182147 2.7649149,8.4181305 2.645834,8.0835224 2.5023445,7.6746302 Z"
      />
    </g>
  </g>
</svg>
