<?xml version="1.0" encoding="UTF-8" standalone="no"?>
<svg xmlns="http://www.w3.org/2000/svg" viewBox="0 0 24 24">
  <g>
    <path
       d="m 4,0 v 24 h 0.5 v -0.051 c 0,-0.1385 0.1115,-0.25 0.25,-0.25 h 1.5 c 0.1385,0 0.25,0.1115 0.25,0.25 V 24 H 7 V 19.5 H 17 V 24 h 0.5 v -0.051 c 0,-0.1385 0.1115,-0.25 0.25,-0.25 h 1.5 c 0.1385,0 0.25,0.1115 0.25,0.25 V 24 H 20 V 0 H 19.449 C 19.416,0.1 19.36,0.2 19.25,0.2 h -1.5 C 17.64,0.2 17.584,0.1 17.551,0 H 17 V 4.5 H 7 V 0 H 6.449 C 6.416,0.1 6.360,0.2 6.25,0.2 H 4.75 C 4.634,0.2 4.584,0.1 4.551,0 Z
       m 0.75,1.2 h 1.5 c 0.1385,0 0.25,0.1115 0.25,0.25 v 1 c 0,0.1385 -0.1115,0.25 -0.25,0.25 h -1.5 c -0.1385,0 -0.25,-0.1115 -0.25,-0.25 v -1 c 0,-0.1385 0.1115,-0.25 0.25,-0.25 z
       m 13,0 h 1.5 c 0.1385,0 0.25,0.1115 0.25,0.25 v 1 c 0,0.1385 -0.1115,0.25 -0.25,0.25 h -1.5 c -0.1385,0 -0.25,-0.1115 -0.25,-0.25 v -1 c 0,-0.1385 0.1115,-0.25 0.25,-0.25 z
       m -13,2.5 h 1.5 c 0.1385,0 0.25,0.1115 0.25,0.25 v 1 c 0,0.1385 -0.1115,0.25 -0.25,0.25 h -1.5 c -0.1385,0 -0.25,-0.1115 -0.25,-0.25 v -1 c 0,-0.1385 0.1115,-0.25 0.25,-0.25 z
       m 13,0 h 1.5 c 0.1385,0 0.25,0.1115 0.25,0.25 v 1 c 0,0.1385 -0.1115,0.25 -0.25,0.25 h -1.5 c -0.1385,0 -0.25,-0.1115 -0.25,-0.25 v -1 c 0,-0.1385 0.1115,-0.25 0.25,-0.25 z
       M 7,5.5 h 10 v 13 H 7 Z
       M 4.75,6.2 h 1.5 c 0.1385,0 0.25,0.1115 0.25,0.25 v 1 c 0,0.1385 -0.1115,0.25 -0.25,0.25 h -1.5 c -0.1385,0 -0.25,-0.1115 -0.25,-0.25 v -1 c 0,-0.1385 0.1115,-0.25 0.25,-0.25 z
       m 13,0 h 1.5 c 0.1385,0 0.25,0.1115 0.25,0.25 v 1 c 0,0.1385 -0.1115,0.25 -0.25,0.25 h -1.5 c -0.1385,0 -0.25,-0.1115 -0.25,-0.25 v -1 c 0,-0.1385 0.1115,-0.25 0.25,-0.25 z
       m -13,2.5 h 1.5 c 0.1385,0 0.25,0.1115 0.25,0.25 v 1 c 0,0.1385 -0.1115,0.25 -0.25,0.25 h -1.5 c -0.1385,0 -0.25,-0.1115 -0.25,-0.25 v -1 c 0,-0.1385 0.1115,-0.25 0.25,-0.25 z
       m 13,0 h 1.5 c 0.1385,0 0.25,0.1115 0.25,0.25 v 1 c 0,0.1385 -0.1115,0.25 -0.25,0.25 h -1.5 c -0.1385,0 -0.25,-0.1115 -0.25,-0.25 v -1 c 0,-0.1385 0.1115,-0.25 0.25,-0.25 z
       m -13,2.5 h 1.5 c 0.1385,0 0.25,0.1115 0.25,0.25 v 1 c 0,0.1385 -0.1115,0.25 -0.25,0.25 h -1.5 c -0.1385,0 -0.25,-0.1115 -0.25,-0.25 v -1 c 0,-0.1385 0.1115,-0.25 0.25,-0.25 z
       m 13,0 h 1.5 c 0.1385,0 0.25,0.1115 0.25,0.25 v 1 c 0,0.1385 -0.1115,0.25 -0.25,0.25 h -1.5 c -0.1385,0 -0.25,-0.1115 -0.25,-0.25 v -1 c 0,-0.1385 0.1115,-0.25 0.25,-0.25 z
       m -13,2.5 h 1.5 c 0.1385,0 0.25,0.1115 0.25,0.25 v 1 c 0,0.1385 -0.1115,0.25 -0.25,0.25 h -1.5 c -0.1385,0 -0.25,-0.1115 -0.25,-0.25 v -1 c 0,-0.1385 0.1115,-0.25 0.25,-0.25 z
       m 13,0 h 1.5 c 0.1385,0 0.25,0.1115 0.25,0.25 v 1 c 0,0.1385 -0.1115,0.25 -0.25,0.25 h -1.5 c -0.1385,0 -0.25,-0.1115 -0.25,-0.25 v -1 c 0,-0.1385 0.1115,-0.25 0.25,-0.25 z
       m -13,2.5 h 1.5 c 0.1385,0 0.25,0.1115 0.25,0.25 v 1 c 0,0.1385 -0.1115,0.25 -0.25,0.25 h -1.5 c -0.1385,0 -0.25,-0.1115 -0.25,-0.25 v -1 c 0,-0.1385 0.1115,-0.25 0.25,-0.25 z
       m 13,0 h 1.5 c 0.1385,0 0.25,0.1115 0.25,0.25 v 1 c 0,0.1385 -0.1115,0.25 -0.25,0.25 h -1.5 c -0.1385,0 -0.25,-0.1115 -0.25,-0.25 v -1 c 0,-0.1385 0.1115,-0.25 0.25,-0.25 z
       m -13,2.5 h 1.5 c 0.1385,0 0.25,0.1115 0.25,0.25 v 1 c 0,0.1385 -0.1115,0.25 -0.25,0.25 h -1.5 c -0.1385,0 -0.25,-0.1115 -0.25,-0.25 v -1 c 0,-0.1385 0.1115,-0.25 0.25,-0.25 z
       m 13,0 h 1.5 c 0.1385,0 0.25,0.1115 0.25,0.25 v 1 c 0,0.1385 -0.1115,0.25 -0.25,0.25 h -1.5 c -0.1385,0 -0.25,-0.1115 -0.25,-0.25 v -1 c 0,-0.1385 0.1115,-0.25 0.25,-0.25 z
       m -13,2.5 h 1.5 c 0.1385,0 0.25,0.1115 0.25,0.25 v 1 c 0,0.1385 -0.1115,0.25 -0.25,0.25 h -1.5 c -0.1385,0 -0.25,-0.1115 -0.25,-0.25 v -1 c 0,-0.1385 0.1115,-0.25 0.25,-0.25 z
       m 13,0 h 1.5 c 0.1385,0 0.25,0.1115 0.25,0.25 v 1 c 0,0.1385 -0.1115,0.25 -0.25,0.25 h -1.5 c -0.1385,0 -0.25,-0.1115 -0.25,-0.25 v -1 c 0,-0.1385 0.1115,-0.25 0.25,-0.25 z" />
    <rect style="fill-opacity:0.2" width="10" height="4.5" x="7" y="0" />
    <rect style="fill-opacity:0.2" width="10" height="13" x="7" y="5.5" />
    <rect style="fill-opacity:0.2" width="10" height="4.5" x="7" y="19.5" />
  </g>
</svg>
