<?xml version="1.0" encoding="UTF-8" standalone="no"?>
<svg xmlns="http://www.w3.org/2000/svg" viewBox="0 0 10 10">
  <g>
    <rect width="1" height="1" x="0.5" y="4.5" />
    <rect width="1" height="1" x="8.5" y="4.5" />
    <path d="M 4.5 4.5 L 4.5 5.5 L 5.5 5.5 L 5.5 4.5 L 4.5 4.5 z M 4.75 4.75 L 5.25 4.75 L 5.25 5.25 L 4.75 5.25 L 4.75 4.75 z" />
    <rect width="1" height="1" x="2.5" y="4.5" />
    <rect width="1" height="1" x="6.5" y="4.5" />
    <rect width="1" height="1" x="4.5" y="2.5" />
    <rect width="1" height="1" x="6.5" y="2.5" />
    <rect width="1" height="1" x="2.5" y="2.5" />
    <rect width="1" height="1" x="2.5" y="6.5" />
    <rect width="1" height="1" x="4.5" y="6.5" />
    <rect width="1" height="1" x="6.5" y="6.5" />
  </g>
</svg>
