<?xml version="1.0" encoding="UTF-8" standalone="no"?>
<svg xmlns="http://www.w3.org/2000/svg" viewBox="0 0 10 10">
  <g transform="matrix(0.14143969,0,0,0.14143969,-2.0719846,-2.0796223)">
    <g>
      <path
        d="m 61.516,67.309 2.288,1.063 c -4.021,3.073 -7.879,5.476 -11.577,7.208 -3.698,1.733 -6.748,2.599 -9.149,2.599 -1.342,0 -2.322,-0.255 -2.947,-0.767 -0.623,-0.512 -0.937,-1.319 -0.937,-2.424 0,-2.73 1.145,-7.004 3.432,-12.819 2.288,-5.815 3.432,-9.933 3.432,-12.349 0,-0.446 -0.127,-0.787 -0.382,-1.024 -0.254,-0.236 -0.612,-0.355 -1.074,-0.355 -0.74,0 -1.641,0.223 -2.704,0.67 -1.063,0.447 -2.379,1.156 -3.951,2.127 l -2.149,-1.182 c 4.297,-2.888 8.25,-5.146 11.854,-6.775 3.604,-1.627 6.422,-2.441 8.456,-2.441 1.341,0 2.333,0.236 2.98,0.709 0.647,0.472 0.971,1.181 0.971,2.126 0,0.919 -0.739,3.874 -2.218,8.862 -0.51,1.681 -0.901,3.007 -1.179,3.979 -0.971,3.256 -1.733,5.961 -2.288,8.113 -0.554,2.153 -0.831,3.454 -0.831,3.9 0,0.551 0.15,0.959 0.45,1.222 0.301,0.263 0.773,0.394 1.421,0.394 0.646,0 1.478,-0.237 2.495,-0.71 1.018,-0.472 2.22,-1.181 3.607,-2.126 z"
      />
    </g>
    <g>
      <circle cx="56.198002" cy="29.933001" r="8.0039997" id="circle10" />
    </g>
  </g>
</svg>
