<?xml version="1.0" encoding="UTF-8" standalone="no"?>
<svg xmlns="http://www.w3.org/2000/svg" viewBox="0 0 10 10">
  <g>
    <path
       d="M 18.789062 4.7246094 A 9.4488179 9.4488179 0 0 0 9.4492188 14.173828 A 9.4488179 9.4488179 0 0 0 9.4902344 15.056641 A 9.4488179 9.4488179 0 0 0 9.4921875 15.072266 C 9.9263159 21.341682 14.78029 27.163456 18.898438 33.070312 C 23.104783 27.058256 27.897614 21.30707 28.306641 15.029297 A 9.4488179 9.4488179 0 0 0 28.345703 14.173828 A 9.4488179 9.4488179 0 0 0 18.898438 4.7246094 A 9.4488179 9.4488179 0 0 0 18.789062 4.7246094 z M 18.802734 8.5039062 A 5.66929 5.6692909 0 0 1 18.898438 8.5039062 A 5.66929 5.6692909 0 0 1 24.566406 14.173828 A 5.66929 5.6692909 0 0 1 18.898438 19.841797 A 5.66929 5.6692909 0 0 1 13.228516 14.173828 A 5.66929 5.6692909 0 0 1 18.802734 8.5039062 z "
       transform="scale(0.26458333)"
    />
  </g>
</svg>
