<?xml version="1.0" encoding="UTF-8" standalone="no"?>
<svg xmlns="http://www.w3.org/2000/svg" viewBox="0 0 10 10">
  <g>
    <path
       d="m 19.841797,12.283203 v 1.025391 c 6.614895,1.809516 6.614895,9.368571 0,11.177722 v 1.025391 h 4.402344 c 1.997345,-1.614436 3.158098,-4.045054 3.158203,-6.613281 -4.68e-4,-2.569566 -1.16277,-5.001138 -3.16211,-6.615235 z"
       transform="scale(0.26458333)" />
    <path
       d="m 13.554688,12.283203 c -1.998609,1.614481 -3.160166,4.045996 -3.160157,6.615235 1.05e-4,2.568227 1.160858,4.998845 3.158203,6.613281 h 4.400391 v -1.025391 c -6.614543,-1.809163 -6.614543,-9.368218 0,-11.177734 v -1.025391 z"
       transform="scale(0.26458333)" />
    <path
       d="m 6,5 a 1,1 0 0 1 -1,1 1,1 0 0 1 -1,-1 1,1 0 0 1 1,-1 1,1 0 0 1 1,1 z" />
    <path
       d="M 1,1.65 V 4.6503336 H 2.2613606 C 2.3209972,3.9698132 2.6398463,3.3774514 3.1129946,2.9 h 3.7744466 c 0.4995377,0.4683191 0.766881,1.0829742 0.851117,1.7502794 H 8.9999673 V 1.65 Z" />
    <path
       d="M 2.2613606,5.35 H 0.99993896 V 8.3503337 H 8.9999673 V 5.35 H 7.7385457 C 7.68021,6.0242283 7.364366,6.6134109 6.8987997,7.0894287 c -0.00395,0.00363 -0.00791,0.00725 -0.011886,0.010852 H 3.1124715 C 2.6258943,6.6469466 2.361219,6.0482193 2.2665235,5.4027106 v -5.17e-4 C 2.2646367,5.3848125 2.2629156,5.3674139 2.2613606,5.35 Z" />
  </g>
</svg>
